{
    "asset": {
        "generator": "FBX2glTF v0.9.7",
        "version": "2.0"
    },
    "scene": 0,
    "buffers": [
        {
            "byteLength": 504288,
            "uri": "buffer.bin"
        }
    ],
    "bufferViews": [
        {
            "buffer": 0,
            "byteLength": 53280,
            "byteOffset": 0,
            "target": 34963
        },
        {
            "buffer": 0,
            "byteLength": 169128,
            "byteOffset": 53280,
            "target": 34962
        },
        {
            "buffer": 0,
            "byteLength": 169128,
            "byteOffset": 222408,
            "target": 34962
        },
        {
            "buffer": 0,
            "byteLength": 112752,
            "byteOffset": 391536,
            "target": 34962
        }
    ],
    "scenes": [
        {
            "name": "Root Scene",
            "nodes": [
                0
            ]
        }
    ],
    "accessors": [
        {
            "componentType": 5123,
            "type": "SCALAR",
            "count": 26640,
            "bufferView": 0,
            "byteOffset": 0
        },
        {
            "componentType": 5126,
            "type": "VEC3",
            "count": 14094,
            "bufferView": 1,
            "byteOffset": 0,
            "min": [
                -0.140000000596046,
                -0.0924756228923798,
                -1.61693716049194
            ],
            "max": [
                0.25,
                0.864021420478821,
                -0.100964359939098
            ]
        },
        {
            "componentType": 5126,
            "type": "VEC3",
            "count": 14094,
            "bufferView": 2,
            "byteOffset": 0
        },
        {
            "componentType": 5126,
            "type": "VEC2",
            "count": 14094,
            "bufferView": 3,
            "byteOffset": 0
        }
    ],
    "images": [
        {
            "name": "Ransome.png",
            "uri": "Ransome.png"
        }
    ],
    "samplers": [
        {}
    ],
    "textures": [
        {
            "name": "Ransome:palette1F",
            "sampler": 0,
            "source": 0
        }
    ],
    "materials": [
        {
            "name": "Ransome:palette1",
            "alphaMode": "BLEND",
            "extras": {
                "fromFBX": {
                    "shadingModel": "Phong",
                    "isTruePBR": false
                }
            },
            "pbrMetallicRoughness": {
                "baseColorTexture": {
                    "index": 0,
                    "texCoord": 0
                },
                "baseColorFactor": [
                    0.800000011920929,
                    0.800000011920929,
                    0.800000011920929,
                    1.0
                ],
                "metallicFactor": 0.400000005960464,
                "roughnessFactor": 0.701862394809723
            }
        }
    ],
    "meshes": [
        {
            "name": "Ransome:Mesh",
            "primitives": [
                {
                    "material": 0,
                    "mode": 4,
                    "attributes": {
                        "NORMAL": 2,
                        "POSITION": 1,
                        "TEXCOORD_0": 3
                    },
                    "indices": 0
                }
            ]
        }
    ],
    "nodes": [
        {
            "name": "RootNode",
            "translation": [
                0.0,
                0.0,
                0.0
            ],
            "rotation": [
                0.0,
                0.0,
                0.0,
                1.0
            ],
            "scale": [
                1.0,
                1.0,
                1.0
            ],
            "children": [
                1,
                2
            ]
        },
        {
            "name": "Ransome:Mesh",
            "translation": [
                0.0,
                0.0,
                0.0
            ],
            "rotation": [
                0.0,
                0.0,
                0.0,
                1.0
            ],
            "scale": [
                1.0,
                1.0,
                1.0
            ],
            "mesh": 0
        },
        {
            "name": "wave1Handle",
            "translation": [
                0.0549999997019768,
                0.449999988079071,
                -0.0949999988079071
            ],
            "rotation": [
                0.627941012382507,
                0.0,
                0.0,
                0.778260946273804
            ],
            "scale": [
                45.0,
                45.0,
                45.0
            ]
        }
    ]
}