{
  "accessors": [
    {
      "bufferView": 1,
      "componentType": 5126,
      "count": 11568,
      "max": [
        28.293699264526367,
        30.180000305175781,
        25.682500839233398
      ],
      "min": [
        -29.593799591064453,
        -22.258100509643555,
        -24.317100524902344
      ],
      "type": "VEC3"
    },
    {
      "bufferView": 1,
      "byteOffset": 138816,
      "componentType": 5126,
      "count": 11568,
      "max": [
        0.9999346137046814,
        0.9992363452911377,
        0.9976116418838501
      ],
      "min": [
        -0.99515688419342041,
        -0.99739962816238403,
        -0.9990382194519043
      ],
      "type": "VEC3"
    },
    {
      "bufferView": 0,
      "componentType": 5125,
      "count": 17352,
      "max": [
        11567
      ],
      "min": [
        0
      ],
      "type": "SCALAR"
    },
    {
      "bufferView": 1,
      "byteOffset": 277632,
      "componentType": 5126,
      "count": 11568,
      "max": [
        28.293699264526367,
        30.340900421142578,
        25.682500839233398
      ],
      "min": [
        -29.593799591064453,
        -22.258100509643555,
        -24.317100524902344
      ],
      "type": "VEC3"
    },
    {
      "bufferView": 1,
      "byteOffset": 416448,
      "componentType": 5126,
      "count": 11568,
      "max": [
        0.9999346137046814,
        0.9992363452911377,
        0.9976116418838501
      ],
      "min": [
        -0.99515688419342041,
        -0.99830013513565063,
        -0.99903833866119385
      ],
      "type": "VEC3"
    },
    {
      "bufferView": 0,
      "byteOffset": 69408,
      "componentType": 5125,
      "count": 17352,
      "max": [
        11567
      ],
      "min": [
        0
      ],
      "type": "SCALAR"
    },
    {
      "bufferView": 1,
      "byteOffset": 555264,
      "componentType": 5126,
      "count": 11568,
      "max": [
        28.293699264526367,
        30.471799850463867,
        25.682500839233398
      ],
      "min": [
        -29.593799591064453,
        -22.194299697875977,
        -24.317100524902344
      ],
      "type": "VEC3"
    },
    {
      "bufferView": 1,
      "byteOffset": 694080,
      "componentType": 5126,
      "count": 11568,
      "max": [
        0.9999346137046814,
        0.9992363452911377,
        0.99991202354431152
      ],
      "min": [
        -0.99515688419342041,
        -0.99965167045593262,
        -0.99903863668441772
      ],
      "type": "VEC3"
    },
    {
      "bufferView": 0,
      "byteOffset": 138816,
      "componentType": 5125,
      "count": 17352,
      "max": [
        11567
      ],
      "min": [
        0
      ],
      "type": "SCALAR"
    },
    {
      "bufferView": 1,
      "byteOffset": 832896,
      "componentType": 5126,
      "count": 11568,
      "max": [
        28.293699264526367,
        30.471799850463867,
        25.682500839233398
      ],
      "min": [
        -29.65369987487793,
        -22.194299697875977,
        -24.317100524902344
      ],
      "type": "VEC3"
    },
    {
      "bufferView": 1,
      "byteOffset": 971712,
      "componentType": 5126,
      "count": 11568,
      "max": [
        0.9999346137046814,
        0.9992363452911377,
        0.9997173547744751
      ],
      "min": [
        -0.99515688419342041,
        -0.99997735023498535,
        -0.99903875589370728
      ],
      "type": "VEC3"
    },
    {
      "bufferView": 0,
      "byteOffset": 208224,
      "componentType": 5125,
      "count": 17352,
      "max": [
        11567
      ],
      "min": [
        0
      ],
      "type": "SCALAR"
    },
    {
      "bufferView": 1,
      "byteOffset": 1110528,
      "componentType": 5126,
      "count": 11568,
      "max": [
        28.293699264526367,
        30.268299102783203,
        25.682500839233398
      ],
      "min": [
        -29.65369987487793,
        -22.194299697875977,
        -24.317100524902344
      ],
      "type": "VEC3"
    },
    {
      "bufferView": 1,
      "byteOffset": 1249344,
      "componentType": 5126,
      "count": 11568,
      "max": [
        0.9999346137046814,
        0.99974197149276733,
        0.99849486351013184
      ],
      "min": [
        -0.99730747938156128,
        -0.99925577640533447,
        -0.99903887510299683
      ],
      "type": "VEC3"
    },
    {
      "bufferView": 0,
      "byteOffset": 277632,
      "componentType": 5125,
      "count": 17352,
      "max": [
        11567
      ],
      "min": [
        0
      ],
      "type": "SCALAR"
    },
    {
      "bufferView": 1,
      "byteOffset": 1388160,
      "componentType": 5126,
      "count": 11568,
      "max": [
        28.293699264526367,
        30.180000305175781,
        25.682500839233398
      ],
      "min": [
        -29.642400741577148,
        -22.194299697875977,
        -24.317100524902344
      ],
      "type": "VEC3"
    },
    {
      "bufferView": 1,
      "byteOffset": 1526976,
      "componentType": 5126,
      "count": 11568,
      "max": [
        0.9999346137046814,
        0.9992363452911377,
        0.9976116418838501
      ],
      "min": [
        -0.99909466505050659,
        -0.99749422073364258,
        -0.99964749813079834
      ],
      "type": "VEC3"
    },
    {
      "bufferView": 0,
      "byteOffset": 347040,
      "componentType": 5125,
      "count": 17352,
      "max": [
        11567
      ],
      "min": [
        0
      ],
      "type": "SCALAR"
    },
    {
      "bufferView": 1,
      "byteOffset": 1665792,
      "componentType": 5126,
      "count": 11564,
      "max": [
        28.293699264526367,
        30.180000305175781,
        25.682500839233398
      ],
      "min": [
        -29.593799591064453,
        -22.194299697875977,
        -24.317100524902344
      ],
      "type": "VEC3"
    },
    {
      "bufferView": 1,
      "byteOffset": 1804560,
      "componentType": 5126,
      "count": 11564,
      "max": [
        0.9999346137046814,
        0.9992363452911377,
        0.9989478588104248
      ],
      "min": [
        -0.99995797872543335,
        -0.99744826555252075,
        -0.99903887510299683
      ],
      "type": "VEC3"
    },
    {
      "bufferView": 0,
      "byteOffset": 416448,
      "componentType": 5125,
      "count": 17346,
      "max": [
        11563
      ],
      "min": [
        0
      ],
      "type": "SCALAR"
    },
    {
      "bufferView": 1,
      "byteOffset": 1943328,
      "componentType": 5126,
      "count": 11564,
      "max": [
        28.293699264526367,
        30.180000305175781,
        25.682500839233398
      ],
      "min": [
        -29.593799591064453,
        -22.194299697875977,
        -24.317100524902344
      ],
      "type": "VEC3"
    },
    {
      "bufferView": 1,
      "byteOffset": 2082096,
      "componentType": 5126,
      "count": 11564,
      "max": [
        0.9999346137046814,
        0.9992363452911377,
        0.99852824211120605
      ],
      "min": [
        -0.99953162670135498,
        -0.99960947036743164,
        -0.99903875589370728
      ],
      "type": "VEC3"
    },
    {
      "bufferView": 0,
      "byteOffset": 485832,
      "componentType": 5125,
      "count": 17346,
      "max": [
        11563
      ],
      "min": [
        0
      ],
      "type": "SCALAR"
    },
    {
      "bufferView": 1,
      "byteOffset": 2220864,
      "componentType": 5126,
      "count": 11564,
      "max": [
        28.293699264526367,
        30.180000305175781,
        25.682500839233398
      ],
      "min": [
        -29.593799591064453,
        -22.194299697875977,
        -24.317100524902344
      ],
      "type": "VEC3"
    },
    {
      "bufferView": 1,
      "byteOffset": 2359632,
      "componentType": 5126,
      "count": 11564,
      "max": [
        0.9999346137046814,
        0.9992363452911377,
        0.9976116418838501
      ],
      "min": [
        -0.99730265140533447,
        -0.99832957983016968,
        -0.99903863668441772
      ],
      "type": "VEC3"
    },
    {
      "bufferView": 0,
      "byteOffset": 555216,
      "componentType": 5125,
      "count": 17346,
      "max": [
        11563
      ],
      "min": [
        0
      ],
      "type": "SCALAR"
    },
    {
      "bufferView": 1,
      "byteOffset": 2498400,
      "componentType": 5126,
      "count": 11568,
      "max": [
        28.293699264526367,
        30.180000305175781,
        25.682500839233398
      ],
      "min": [
        -29.593799591064453,
        -22.253700256347656,
        -24.317100524902344
      ],
      "type": "VEC3"
    },
    {
      "bufferView": 1,
      "byteOffset": 2637216,
      "componentType": 5126,
      "count": 11568,
      "max": [
        0.9999346137046814,
        0.99936473369598389,
        0.9976116418838501
      ],
      "min": [
        -0.99515688419342041,
        -0.99739962816238403,
        -0.9990384578704834
      ],
      "type": "VEC3"
    },
    {
      "bufferView": 0,
      "byteOffset": 624600,
      "componentType": 5125,
      "count": 17352,
      "max": [
        11567
      ],
      "min": [
        0
      ],
      "type": "SCALAR"
    },
    {
      "bufferView": 2,
      "componentType": 5126,
      "count": 3,
      "max": [
        0.10000000149011612
      ],
      "min": [
        0
      ],
      "type": "SCALAR"
    },
    {
      "bufferView": 3,
      "componentType": 5126,
      "count": 3,
      "max": [
        1,
        1,
        1
      ],
      "min": [
        1.000000013351432e-10,
        1.000000013351432e-10,
        1.000000013351432e-10
      ],
      "type": "VEC3"
    },
    {
      "bufferView": 2,
      "byteOffset": 12,
      "componentType": 5126,
      "count": 5,
      "max": [
        0.20000000298023224
      ],
      "min": [
        0
      ],
      "type": "SCALAR"
    },
    {
      "bufferView": 3,
      "byteOffset": 36,
      "componentType": 5126,
      "count": 5,
      "max": [
        1,
        1,
        1
      ],
      "min": [
        1.000000013351432e-10,
        1.000000013351432e-10,
        1.000000013351432e-10
      ],
      "type": "VEC3"
    },
    {
      "bufferView": 2,
      "byteOffset": 32,
      "componentType": 5126,
      "count": 5,
      "max": [
        0.30000001192092896
      ],
      "min": [
        0
      ],
      "type": "SCALAR"
    },
    {
      "bufferView": 3,
      "byteOffset": 96,
      "componentType": 5126,
      "count": 5,
      "max": [
        1,
        1,
        1
      ],
      "min": [
        1.000000013351432e-10,
        1.000000013351432e-10,
        1.000000013351432e-10
      ],
      "type": "VEC3"
    },
    {
      "bufferView": 2,
      "byteOffset": 52,
      "componentType": 5126,
      "count": 5,
      "max": [
        0.40000000596046448
      ],
      "min": [
        0
      ],
      "type": "SCALAR"
    },
    {
      "bufferView": 3,
      "byteOffset": 156,
      "componentType": 5126,
      "count": 5,
      "max": [
        1,
        1,
        1
      ],
      "min": [
        1.000000013351432e-10,
        1.000000013351432e-10,
        1.000000013351432e-10
      ],
      "type": "VEC3"
    },
    {
      "bufferView": 2,
      "byteOffset": 72,
      "componentType": 5126,
      "count": 5,
      "max": [
        0.5
      ],
      "min": [
        0
      ],
      "type": "SCALAR"
    },
    {
      "bufferView": 3,
      "byteOffset": 216,
      "componentType": 5126,
      "count": 5,
      "max": [
        1,
        1,
        1
      ],
      "min": [
        1.000000013351432e-10,
        1.000000013351432e-10,
        1.000000013351432e-10
      ],
      "type": "VEC3"
    },
    {
      "bufferView": 2,
      "byteOffset": 92,
      "componentType": 5126,
      "count": 5,
      "max": [
        0.60000002384185791
      ],
      "min": [
        0
      ],
      "type": "SCALAR"
    },
    {
      "bufferView": 3,
      "byteOffset": 276,
      "componentType": 5126,
      "count": 5,
      "max": [
        1,
        1,
        1
      ],
      "min": [
        1.000000013351432e-10,
        1.000000013351432e-10,
        1.000000013351432e-10
      ],
      "type": "VEC3"
    },
    {
      "bufferView": 2,
      "byteOffset": 112,
      "componentType": 5126,
      "count": 5,
      "max": [
        0.69999998807907104
      ],
      "min": [
        0
      ],
      "type": "SCALAR"
    },
    {
      "bufferView": 3,
      "byteOffset": 336,
      "componentType": 5126,
      "count": 5,
      "max": [
        1,
        1,
        1
      ],
      "min": [
        1.000000013351432e-10,
        1.000000013351432e-10,
        1.000000013351432e-10
      ],
      "type": "VEC3"
    },
    {
      "bufferView": 2,
      "byteOffset": 132,
      "componentType": 5126,
      "count": 5,
      "max": [
        0.80000001192092896
      ],
      "min": [
        0
      ],
      "type": "SCALAR"
    },
    {
      "bufferView": 3,
      "byteOffset": 396,
      "componentType": 5126,
      "count": 5,
      "max": [
        1,
        1,
        1
      ],
      "min": [
        1.000000013351432e-10,
        1.000000013351432e-10,
        1.000000013351432e-10
      ],
      "type": "VEC3"
    },
    {
      "bufferView": 2,
      "byteOffset": 152,
      "componentType": 5126,
      "count": 5,
      "max": [
        0.89999997615814209
      ],
      "min": [
        0
      ],
      "type": "SCALAR"
    },
    {
      "bufferView": 3,
      "byteOffset": 456,
      "componentType": 5126,
      "count": 5,
      "max": [
        1,
        1,
        1
      ],
      "min": [
        1.000000013351432e-10,
        1.000000013351432e-10,
        1.000000013351432e-10
      ],
      "type": "VEC3"
    },
    {
      "bufferView": 2,
      "byteOffset": 172,
      "componentType": 5126,
      "count": 4,
      "max": [
        1
      ],
      "min": [
        0
      ],
      "type": "SCALAR"
    },
    {
      "bufferView": 3,
      "byteOffset": 516,
      "componentType": 5126,
      "count": 4,
      "max": [
        1,
        1,
        1
      ],
      "min": [
        1.000000013351432e-10,
        1.000000013351432e-10,
        1.000000013351432e-10
      ],
      "type": "VEC3"
    }
  ],
  "animations": [
    {
      "channels": [
        {
          "sampler": 0,
          "target": {
            "node": 21,
            "path": "scale"
          }
        },
        {
          "sampler": 1,
          "target": {
            "node": 19,
            "path": "scale"
          }
        },
        {
          "sampler": 2,
          "target": {
            "node": 17,
            "path": "scale"
          }
        },
        {
          "sampler": 3,
          "target": {
            "node": 15,
            "path": "scale"
          }
        },
        {
          "sampler": 4,
          "target": {
            "node": 13,
            "path": "scale"
          }
        },
        {
          "sampler": 5,
          "target": {
            "node": 11,
            "path": "scale"
          }
        },
        {
          "sampler": 6,
          "target": {
            "node": 9,
            "path": "scale"
          }
        },
        {
          "sampler": 7,
          "target": {
            "node": 7,
            "path": "scale"
          }
        },
        {
          "sampler": 8,
          "target": {
            "node": 5,
            "path": "scale"
          }
        },
        {
          "sampler": 9,
          "target": {
            "node": 3,
            "path": "scale"
          }
        }
      ],
      "name": "",
      "samplers": [
        {
          "input": 30,
          "interpolation": "LINEAR",
          "output": 31
        },
        {
          "input": 32,
          "interpolation": "LINEAR",
          "output": 33
        },
        {
          "input": 34,
          "interpolation": "LINEAR",
          "output": 35
        },
        {
          "input": 36,
          "interpolation": "LINEAR",
          "output": 37
        },
        {
          "input": 38,
          "interpolation": "LINEAR",
          "output": 39
        },
        {
          "input": 40,
          "interpolation": "LINEAR",
          "output": 41
        },
        {
          "input": 42,
          "interpolation": "LINEAR",
          "output": 43
        },
        {
          "input": 44,
          "interpolation": "LINEAR",
          "output": 45
        },
        {
          "input": 46,
          "interpolation": "LINEAR",
          "output": 47
        },
        {
          "input": 48,
          "interpolation": "LINEAR",
          "output": 49
        }
      ]
    }
  ],
  "asset": {
    "extras": {
      "author": "n- (https://sketchfab.com/n-)",
      "license": "CC-BY-4.0 (http://creativecommons.org/licenses/by/4.0/)",
      "source": "https://sketchfab.com/models/926acd7aed8a47779685bf3058128b47",
      "title": "attractor/8 Wang-Sun (stop_motion2)"
    },
    "generator": "Sketchfab-3.18.5",
    "version": "2.0"
  },
  "bufferViews": [
    {
      "buffer": 0,
      "byteLength": 694008,
      "byteOffset": 0,
      "name": "floatBufferViews",
      "target": 34963
    },
    {
      "buffer": 0,
      "byteLength": 2776032,
      "byteOffset": 694008,
      "byteStride": 12,
      "name": "floatBufferViews",
      "target": 34962
    },
    {
      "buffer": 0,
      "byteLength": 188,
      "byteOffset": 3470040,
      "name": "floatBufferViews"
    },
    {
      "buffer": 0,
      "byteLength": 564,
      "byteOffset": 3470228,
      "byteStride": 12,
      "name": "floatBufferViews"
    }
  ],
  "buffers": [
    {
      "byteLength": 3470792,
      "uri": "scene.bin"
    }
  ],
  "extensionsUsed": [
    "KHR_materials_unlit"
  ],
  "materials": [
    {
      "doubleSided": true,
      "emissiveFactor": [
        0,
        0,
        0
      ],
      "extensions": {
        "KHR_materials_unlit": {}
      },
      "name": "Scene_-_Root",
      "pbrMetallicRoughness": {
        "baseColorFactor": [
          1,
          1,
          1,
          1
        ],
        "metallicFactor": 0,
        "roughnessFactor": 1
      }
    }
  ],
  "meshes": [
    {
      "primitives": [
        {
          "attributes": {
            "NORMAL": 1,
            "POSITION": 0
          },
          "indices": 2,
          "material": 0,
          "mode": 4
        }
      ]
    },
    {
      "primitives": [
        {
          "attributes": {
            "NORMAL": 4,
            "POSITION": 3
          },
          "indices": 5,
          "material": 0,
          "mode": 4
        }
      ]
    },
    {
      "primitives": [
        {
          "attributes": {
            "NORMAL": 7,
            "POSITION": 6
          },
          "indices": 8,
          "material": 0,
          "mode": 4
        }
      ]
    },
    {
      "primitives": [
        {
          "attributes": {
            "NORMAL": 10,
            "POSITION": 9
          },
          "indices": 11,
          "material": 0,
          "mode": 4
        }
      ]
    },
    {
      "primitives": [
        {
          "attributes": {
            "NORMAL": 13,
            "POSITION": 12
          },
          "indices": 14,
          "material": 0,
          "mode": 4
        }
      ]
    },
    {
      "primitives": [
        {
          "attributes": {
            "NORMAL": 16,
            "POSITION": 15
          },
          "indices": 17,
          "material": 0,
          "mode": 4
        }
      ]
    },
    {
      "primitives": [
        {
          "attributes": {
            "NORMAL": 19,
            "POSITION": 18
          },
          "indices": 20,
          "material": 0,
          "mode": 4
        }
      ]
    },
    {
      "primitives": [
        {
          "attributes": {
            "NORMAL": 22,
            "POSITION": 21
          },
          "indices": 23,
          "material": 0,
          "mode": 4
        }
      ]
    },
    {
      "primitives": [
        {
          "attributes": {
            "NORMAL": 25,
            "POSITION": 24
          },
          "indices": 26,
          "material": 0,
          "mode": 4
        }
      ]
    },
    {
      "primitives": [
        {
          "attributes": {
            "NORMAL": 28,
            "POSITION": 27
          },
          "indices": 29,
          "material": 0,
          "mode": 4
        }
      ]
    }
  ],
  "nodes": [
    {
      "children": [
        1
      ],
      "name": "RootNode (gltf orientation matrix)",
      "rotation": [
        -0.70710678118654746,
        -0,
        -0,
        0.70710678118654757
      ]
    },
    {
      "children": [
        2
      ],
      "matrix": [
        0,
        0,
        -1,
        0,
        -1,
        0,
        0,
        0,
        0,
        1,
        0,
        0,
        3.3136043548583984,
        3.2808456420898438,
        0.032758712768554688,
        1
      ],
      "name": "RootNode (model correction matrix)"
    },
    {
      "children": [
        3,
        5,
        7,
        9,
        11,
        13,
        15,
        17,
        19,
        21
      ],
      "name": "sketchfab.timeframe"
    },
    {
      "children": [
        4
      ],
      "name": "",
      "scale": [
        1.000000013351432e-10,
        1.000000013351432e-10,
        1.000000013351432e-10
      ]
    },
    {
      "mesh": 0,
      "name": ""
    },
    {
      "children": [
        6
      ],
      "name": "",
      "scale": [
        1.000000013351432e-10,
        1.000000013351432e-10,
        1.000000013351432e-10
      ]
    },
    {
      "mesh": 1,
      "name": ""
    },
    {
      "children": [
        8
      ],
      "name": "",
      "scale": [
        1.000000013351432e-10,
        1.000000013351432e-10,
        1.000000013351432e-10
      ]
    },
    {
      "mesh": 2,
      "name": ""
    },
    {
      "children": [
        10
      ],
      "name": "",
      "scale": [
        1.000000013351432e-10,
        1.000000013351432e-10,
        1.000000013351432e-10
      ]
    },
    {
      "mesh": 3,
      "name": ""
    },
    {
      "children": [
        12
      ],
      "name": "",
      "scale": [
        1.000000013351432e-10,
        1.000000013351432e-10,
        1.000000013351432e-10
      ]
    },
    {
      "mesh": 4,
      "name": ""
    },
    {
      "children": [
        14
      ],
      "name": "",
      "scale": [
        1.000000013351432e-10,
        1.000000013351432e-10,
        1.000000013351432e-10
      ]
    },
    {
      "mesh": 5,
      "name": ""
    },
    {
      "children": [
        16
      ],
      "name": "",
      "scale": [
        1.000000013351432e-10,
        1.000000013351432e-10,
        1.000000013351432e-10
      ]
    },
    {
      "mesh": 6,
      "name": ""
    },
    {
      "children": [
        18
      ],
      "name": "",
      "scale": [
        1.000000013351432e-10,
        1.000000013351432e-10,
        1.000000013351432e-10
      ]
    },
    {
      "mesh": 7,
      "name": ""
    },
    {
      "children": [
        20
      ],
      "name": "",
      "scale": [
        1.000000013351432e-10,
        1.000000013351432e-10,
        1.000000013351432e-10
      ]
    },
    {
      "mesh": 8,
      "name": ""
    },
    {
      "children": [
        22
      ],
      "name": ""
    },
    {
      "mesh": 9,
      "name": ""
    }
  ],
  "scene": 0,
  "scenes": [
    {
      "name": "OSG_Scene",
      "nodes": [
        0
      ]
    }
  ]
}

